<svg id="Layer_1" xmlns="http://www.w3.org/2000/svg" viewBox="0 0 400 240" style="max-width:100%"><style>.st0{fill:#d6d8d7}</style><path class="st0" d="M0 122.5C0 100.3 5.3 79.8 15.8 61s24.9-33.7 43-44.6S96.6 0 118 0s41.1 5.5 59.2 16.4 32.4 25.8 43 44.6 15.8 39.3 15.8 61.5c0 .6 0 1.4-.1 2.4s-.1 1.7-.1 2.4c-1.3-32.7-13.3-60.5-36-83.3S149.8 9.7 118 9.7 59 21.1 36.2 43.9 1.5 94.5.2 127.2c0-.6 0-1.4-.1-2.4s-.1-1.7-.1-2.3zm43.2-.3c0-21.4 7.3-39.7 21.9-54.9S97.4 44.6 118 44.6s38.2 7.6 52.9 22.8 21.9 33.5 21.9 54.9c0 .5 0 1.3-.1 2.4-.1 1.1-.1 1.9-.1 2.4-1.3-20.3-9-37.5-23.4-51.7S137.8 54 118 54s-36.9 7.1-51.2 21.2-22.1 31.5-23.4 51.8c0-.5 0-1.3-.1-2.4-.1-1.1-.1-1.9-.1-2.4zm39.2 46.1c0-5.2.4-9.8 1.1-13.9.7-4.1 1.5-7.5 2.5-10.1s2.4-5 4.4-6.8c2-1.9 3.8-3.3 5.4-4.2s3.9-1.7 6.7-2.2c2.8-.6 5.3-.9 7.3-.9 2-.1 4.8-.1 8.3-.1 3.5 0 6.2 0 8.3.1s4.5.4 7.3.9 5.1 1.3 6.7 2.2c1.7.9 3.5 2.4 5.4 4.2s3.4 4.2 4.4 6.8 1.8 6.1 2.5 10.1c.7 4.1 1.1 8.7 1.1 13.9 0 18.6-3.5 34.5-10.5 47.8S127.8 236 118 236s-18.1-6.6-25.1-19.9c-7-13.3-10.5-29.3-10.5-47.8zm11.1-66.1c0-6.9 2.4-12.9 7.2-17.9s10.6-7.6 17.3-7.6c6.8 0 12.5 2.5 17.3 7.6 4.8 5 7.2 11 7.2 17.9 0 6.9-2.4 12.9-7.2 17.9-4.8 5-10.6 7.6-17.3 7.6-6.8 0-12.5-2.5-17.3-7.6-4.8-5-7.2-11-7.2-17.9z"/></svg>